<?xml version="1.0" encoding="utf-8"?>
<!-- Generator: Adobe Illustrator 18.1.1, SVG Export Plug-In . SVG Version: 6.00 Build 0)  -->
<!DOCTYPE svg PUBLIC "-//W3C//DTD SVG 1.1//EN" "http://www.w3.org/Graphics/SVG/1.1/DTD/svg11.dtd">
<svg version="1.1" id="Layer_1" xmlns="http://www.w3.org/2000/svg" xmlns:xlink="http://www.w3.org/1999/xlink" x="0px" y="0px"
	 viewBox="0 0 64 45" enable-background="new 0 0 64 45" xml:space="preserve">
<path id="USERS_2_" fill-rule="evenodd" clip-rule="evenodd" d="M63.9,43.1C63.9,43.1,63.9,43.1,63.9,43.1c0,1.1-0.9,2-2,2H47.1
	c1.1-0.2,1.9-1.2,1.9-2.4c0,0,0,0,0,0h0c0,0,0-9-6.6-12.3c-2.8-1.4-3-1.1-4.4-1.5l0-3.9c0,0-1.5-1.2-2-4.9c-1,0.3-1.3-1.1-1.3-2
	c-0.1-0.9-0.6-3.6,0.6-3.3c-0.2-1.8-0.4-3.4-0.3-4.3c0.3-3,3.2-6.2,7.7-6.4c5.3,0.2,7.4,3.4,7.7,6.4c0.1,0.9-0.1,2.5-0.3,4.3
	c1.2-0.2,0.7,2.5,0.6,3.3c-0.1,0.9-0.4,2.3-1.3,2c-0.5,3.7-2,4.9-2,4.9l0,3.9c0,0,1,0.6,5.1,2.3c4.1,1.7,2.8,0.4,6.2,2.1
	C63.9,35.8,63.9,43.1,63.9,43.1L63.9,43.1z M34,29.7c4.5,1.9,3.1,0.5,6.8,2.3c5.8,2.9,5.8,10.8,5.8,10.8h0c0,0,0,0,0,0
	c0,1.2-1,2.2-2.2,2.2H2.2C1,45,0,44.1,0,42.9c0,0,0,0,0,0h0c0,0,0-7.9,5.8-10.8c3.7-1.8,2.3-0.3,6.8-2.2c4.5-1.9,5.6-2.5,5.6-2.5
	l0-4.3c0,0-1.7-1.3-2.2-5.3c-1.1,0.3-1.4-1.2-1.5-2.2c-0.1-1-0.6-3.9,0.7-3.7c-0.3-2-0.5-3.8-0.4-4.7c0.3-3.3,3.5-6.8,8.5-7.1
	c5.8,0.3,8.1,3.7,8.5,7.1c0.1,0.9-0.1,2.7-0.4,4.7c1.3-0.3,0.7,2.7,0.7,3.7c-0.1,1-0.4,2.5-1.5,2.2c-0.5,4-2.2,5.3-2.2,5.3l0,4.3
	C28.5,27.3,29.5,27.9,34,29.7z"/>
</svg>
