<?xml version="1.0" encoding="utf-8"?>
<!-- Generator: Adobe Illustrator 18.1.1, SVG Export Plug-In . SVG Version: 6.00 Build 0)  -->
<!DOCTYPE svg PUBLIC "-//W3C//DTD SVG 1.1//EN" "http://www.w3.org/Graphics/SVG/1.1/DTD/svg11.dtd">
<svg version="1.1" id="Layer_1" xmlns="http://www.w3.org/2000/svg" xmlns:xlink="http://www.w3.org/1999/xlink" x="0px" y="0px"
	 viewBox="0 0 64 64" enable-background="new 0 0 64 64" xml:space="preserve">
<path id="BIN_2_" fill-rule="evenodd" clip-rule="evenodd" d="M5.6,10c0-1.8,1.5-3.3,3.3-3.3h16.5V3.5c0-1.8,1.5-3.3,3.3-3.3h6.6
	c1.8,0,3.3,1.5,3.3,3.3v3.3h16.5c1.8,0,3.3,1.5,3.3,3.3v3.3H5.6V10z M55.1,19.9v6.6v34c0,1.8-1.5,3.3-3.3,3.3H12.2
	c-1.8,0-3.3-1.5-3.3-3.3v-34v-6.6v-3.3h46.1V19.9z M22.1,26.5c0-1.8-1.5-3.3-3.3-3.3c-1.8,0-3.3,1.5-3.3,3.3V54
	c0,1.8,1.5,3.3,3.3,3.3c1.8,0,3.3-1.5,3.3-3.3V26.5z M35.3,26.5c0-1.8-1.5-3.3-3.3-3.3c-1.8,0-3.3,1.5-3.3,3.3V54
	c0,1.8,1.5,3.3,3.3,3.3c1.8,0,3.3-1.5,3.3-3.3V26.5z M48.5,26.5c0-1.8-1.5-3.3-3.3-3.3c-1.8,0-3.3,1.5-3.3,3.3V54
	c0,1.8,1.5,3.3,3.3,3.3c1.8,0,3.3-1.5,3.3-3.3V26.5z"/>
</svg>
