<?xml version="1.0" encoding="utf-8"?>
<!-- Generator: Adobe Illustrator 18.1.1, SVG Export Plug-In . SVG Version: 6.00 Build 0)  -->
<!DOCTYPE svg PUBLIC "-//W3C//DTD SVG 1.1//EN" "http://www.w3.org/Graphics/SVG/1.1/DTD/svg11.dtd">
<svg version="1.1" id="Layer_1" xmlns="http://www.w3.org/2000/svg" xmlns:xlink="http://www.w3.org/1999/xlink" x="0px" y="0px"
	 viewBox="0 0 64 64" enable-background="new 0 0 64 64" xml:space="preserve">
<path id="CLOSE_2_" fill-rule="evenodd" clip-rule="evenodd" d="M62.2,9.7L40,32l22.3,22.3l0,0c1,1,1.6,2.4,1.6,4
	c0,3.1-2.5,5.6-5.6,5.6c-1.6,0-3-0.6-4-1.6l0,0L32,40L9.7,62.2l0,0c-1,1-2.4,1.6-4,1.6c-3.1,0-5.6-2.5-5.6-5.6c0-1.6,0.6-3,1.6-4
	l0,0L24,32L1.8,9.7l0,0c-1-1-1.6-2.4-1.6-4c0-3.1,2.5-5.6,5.6-5.6c1.6,0,3,0.6,4,1.6l0,0L32,24L54.3,1.8l0,0c1-1,2.4-1.6,4-1.6
	c3.1,0,5.6,2.5,5.6,5.6C63.9,7.3,63.3,8.7,62.2,9.7L62.2,9.7z"/>
</svg>
