<?xml version="1.0" encoding="utf-8"?>
<!-- Generator: Adobe Illustrator 18.1.1, SVG Export Plug-In . SVG Version: 6.00 Build 0)  -->
<!DOCTYPE svg PUBLIC "-//W3C//DTD SVG 1.1//EN" "http://www.w3.org/Graphics/SVG/1.1/DTD/svg11.dtd">
<svg version="1.1" id="Layer_1" xmlns="http://www.w3.org/2000/svg" xmlns:xlink="http://www.w3.org/1999/xlink" x="0px" y="0px"
	 viewBox="0 0 64 64" enable-background="new 0 0 64 64" xml:space="preserve">
<g>
	<path opacity="0.15" fill="#B76A8A" d="M57.9,16.7H18.1H16h-4.8v4.8v1v33.2c0,2.6,2.1,4.8,4.8,4.8h41.9c2.6,0,4.8-2.1,4.8-4.8V21.5
		C62.6,18.8,60.5,16.7,57.9,16.7z"/>
	<g>
		<path fill="none" stroke="#6A80B9" stroke-width="5" stroke-miterlimit="10" d="M54.7,49.9c0,1.1-0.9,2-2,2H5.2c-1.1,0-2-0.9-2-2
			V10.1c0-1.1,0.9-2,2-2h47.4c1.1,0,2,0.9,2,2V49.9z"/>
	</g>
	<line fill="none" stroke="#6A80B9" stroke-width="3" stroke-miterlimit="10" x1="16.5" y1="1.1" x2="16.5" y2="15.9"/>
	<line fill="none" stroke="#6A80B9" stroke-width="3" stroke-miterlimit="10" x1="29" y1="1.1" x2="29" y2="15.9"/>
	<line fill="none" stroke="#6A80B9" stroke-width="3" stroke-miterlimit="10" x1="41.4" y1="1.1" x2="41.4" y2="15.9"/>
	<line fill="none" stroke="#6A80B9" stroke-width="2" stroke-miterlimit="10" x1="13.6" y1="25" x2="44.3" y2="25"/>
	<line fill="none" stroke="#6A80B9" stroke-width="2" stroke-miterlimit="10" x1="13.6" y1="32.9" x2="44.3" y2="32.9"/>
	<line fill="none" stroke="#6A80B9" stroke-width="2" stroke-miterlimit="10" x1="13.6" y1="40.8" x2="44.3" y2="40.8"/>
</g>
</svg>
