<?xml version="1.0" encoding="utf-8"?>
<!-- Generator: Adobe Illustrator 18.1.1, SVG Export Plug-In . SVG Version: 6.00 Build 0)  -->
<!DOCTYPE svg PUBLIC "-//W3C//DTD SVG 1.1//EN" "http://www.w3.org/Graphics/SVG/1.1/DTD/svg11.dtd">
<svg version="1.1" id="Layer_1" xmlns="http://www.w3.org/2000/svg" xmlns:xlink="http://www.w3.org/1999/xlink" x="0px" y="0px"
	 viewBox="0 0 64 38" enable-background="new 0 0 64 38" xml:space="preserve">
<path id="LIST_2_2_" fill-rule="evenodd" clip-rule="evenodd" d="M61,22H21h0c-1.7,0-3-1.3-3-3c0-1.7,1.3-3,3-3c0,0,0,0,0,0h40
	c1.7,0,3,1.3,3,3C64,20.7,62.7,22,61,22z M61,6H21l0,0c-1.7,0-3-1.3-3-3s1.3-3,3-3c0,0,0,0,0,0h40c1.7,0,3,1.3,3,3
	C64,4.7,62.7,6,61,6z M9,38L9,38l-6,0c-1.7,0-3-1.3-3-3c0-1.7,1.3-3,3-3h6h0c1.7,0,3,1.3,3,3C12,36.7,10.7,38,9,38z M9,22L9,22H3
	c-1.7,0-3-1.3-3-3c0-1.7,1.3-3,3-3h6c0,0,0,0,0,0c1.7,0,3,1.3,3,3C12,20.7,10.7,22,9,22z M9,6L9,6H3C1.3,6,0,4.7,0,3
	c0-1.7,1.3-3,3-3h6l0,0c1.7,0,3,1.3,3,3S10.7,6,9,6z M21,38c-1.7,0-3-1.3-3-3c0-1.7,1.3-3,3-3h0h40c1.7,0,3,1.3,3,3c0,1.7-1.3,3-3,3
	L21,38L21,38z"/>
</svg>
