<?xml version="1.0" encoding="utf-8"?>
<!-- Generator: Adobe Illustrator 18.1.1, SVG Export Plug-In . SVG Version: 6.00 Build 0)  -->
<!DOCTYPE svg PUBLIC "-//W3C//DTD SVG 1.1//EN" "http://www.w3.org/Graphics/SVG/1.1/DTD/svg11.dtd">
<svg version="1.1" id="Layer_1" xmlns="http://www.w3.org/2000/svg" xmlns:xlink="http://www.w3.org/1999/xlink" x="0px" y="0px"
	 viewBox="0 0 64 64" enable-background="new 0 0 64 64" xml:space="preserve">
<path id="NOTEPAD_2_" fill-rule="evenodd" clip-rule="evenodd" d="M58,64H6c-1.7,0-3-1.3-3-3V9c0-1.7,1.3-3,3-3h5v3c0,3.3,2.7,6,6,6
	c3.3,0,6-2.7,6-6V6h3v3c0,3.3,2.7,6,6,6c3.3,0,6-2.7,6-6V6h3v3c0,3.3,2.7,6,6,6c3.3,0,6-2.7,6-6V6h5c1.7,0,3,1.3,3,3v52
	C61,62.7,59.7,64,58,64z M50,23H14c-1.7,0-3,1.3-3,3c0,1.7,1.3,3,3,3h36c1.7,0,3-1.3,3-3C53,24.3,51.7,23,50,23z M50,36H14
	c-1.7,0-3,1.3-3,3c0,1.7,1.3,3,3,3h36c1.7,0,3-1.3,3-3C53,37.3,51.7,36,50,36z M50.5,49h-37c-1.4,0-2.5,1.1-2.5,2.5
	c0,1.4,1.1,2.5,2.5,2.5h37c1.4,0,2.5-1.1,2.5-2.5C53,50.1,51.9,49,50.5,49z M47,12c-1.7,0-3-1.3-3-3V3c0-1.7,1.3-3,3-3
	c1.7,0,3,1.3,3,3v6C50,10.7,48.7,12,47,12z M32,12c-1.7,0-3-1.3-3-3V3c0-1.7,1.3-3,3-3c1.7,0,3,1.3,3,3v6C35,10.7,33.7,12,32,12z
	 M17,12c-1.7,0-3-1.3-3-3V3c0-1.7,1.3-3,3-3c1.7,0,3,1.3,3,3v6C20,10.7,18.7,12,17,12z"/>
</svg>
