<?xml version="1.0" encoding="utf-8"?>
<!-- Generator: Adobe Illustrator 18.1.1, SVG Export Plug-In . SVG Version: 6.00 Build 0)  -->
<!DOCTYPE svg PUBLIC "-//W3C//DTD SVG 1.1//EN" "http://www.w3.org/Graphics/SVG/1.1/DTD/svg11.dtd">
<svg version="1.1" id="Layer_1" xmlns="http://www.w3.org/2000/svg" xmlns:xlink="http://www.w3.org/1999/xlink" x="0px" y="0px"
	 viewBox="0 0 64 64" enable-background="new 0 0 64 64" xml:space="preserve">
<path id="USER_2_" fill-rule="evenodd" clip-rule="evenodd" d="M32,64C14.3,64,0,49.7,0,32C0,14.3,14.3,0,32,0c17.7,0,32,14.3,32,32
	C64,49.7,49.7,64,32,64z M32,6C17.6,6,6,17.6,6,32c0,6.7,2.6,12.8,6.7,17.4c3.8-1.8,2.4-0.3,7.3-2.3c5-2.1,6.2-2.8,6.2-2.8l0-4.8
	c0,0-1.9-1.4-2.5-5.9c-1.2,0.3-1.6-1.4-1.6-2.5c-0.1-1.1-0.7-4.4,0.8-4.1c-0.3-2.2-0.5-4.2-0.4-5.2c0.4-3.7,3.9-7.5,9.5-7.8
	c6.5,0.3,9.1,4.1,9.4,7.8c0.1,1.1-0.1,3-0.4,5.2c1.4-0.3,0.8,3,0.7,4.1c-0.1,1.1-0.5,2.8-1.6,2.5c-0.6,4.5-2.5,5.9-2.5,5.9l0,4.8
	c0,0,1.2,0.7,6.2,2.7c4.9,2,3.5,0.6,7.3,2.4C55.4,44.8,58,38.7,58,32C58,17.6,46.4,6,32,6z"/>
</svg>
