<?xml version="1.0" encoding="utf-8"?>
<!-- Generator: Adobe Illustrator 19.0.0, SVG Export Plug-In . SVG Version: 6.00 Build 0)  -->
<!DOCTYPE svg PUBLIC "-//W3C//DTD SVG 1.1//EN" "http://www.w3.org/Graphics/SVG/1.1/DTD/svg11.dtd">
<svg version="1.1" id="Layer_1" xmlns="http://www.w3.org/2000/svg" xmlns:xlink="http://www.w3.org/1999/xlink" x="0px" y="0px"
	 viewBox="0 0 42 42" enable-background="new 0 0 42 42" xml:space="preserve">
<path id="SQUARE__x2F__OK_2_" fill="#193549" d="M40,42H2c-1.1,0-2-0.9-2-2V2c0-1.1,0.9-2,2-2h38c1.1,0,2,0.9,2,2v38
	C42,41.1,41.1,42,40,42z M38.1,3.9H3.9V38H38L38.1,3.9L38.1,3.9z M30.2,28.2L30.2,28.2L30.2,28.2L30.2,28.2z M30.2,13.8L30.2,13.8
	L30.2,13.8L30.2,13.8z"/>
<path id="TICK_2_" fill="#193549" d="M33.5,15L33.5,15L19.2,29.2l0,0c-0.3,0.3-0.8,0.5-1.3,0.5s-1-0.2-1.3-0.5l0,0l-8.1-8.1l0,0
	C8.2,20.8,8,20.4,8,19.9c0-1,0.8-1.9,1.9-1.9c0.5,0,1,0.2,1.3,0.5l0,0l6.8,6.8l13-13l0,0c0.3-0.3,0.8-0.5,1.3-0.5
	c1,0,1.9,0.8,1.9,1.9C34,14.2,33.8,14.6,33.5,15z"/>
</svg>
